# xmcd
#
# Track frame offsets:
#	150
#	17550
#	22875
#
# Disc length: 535 seconds
#
# Revision: 1
# Processed by: cddbd v1.5.1PL0 Copyright (c) Steve Scherf et al.
# Submitted via: CDex 1.50Beta5
#
DISCID=13021503
DTITLE=百石　元 - やっぱりサルゲッチュ
DYEAR=1900
DGENRE=Pop
TTITLE0=やっぱりサルゲッチュ
TTITLE1=やっぱりサルゲッチュ（ダンス・エディット・バージョン）
TTITLE2=やっぱりサルゲッチュ（カラオケ・バージョン）
EXTD=
EXTT0=
EXTT1=
EXTT2=
PLAYORDER=
